<?xml version="1.0" encoding="utf-8"?>
<!-- Generator: Adobe Illustrator 26.0.1, SVG Export Plug-In . SVG Version: 6.00 Build 0)  -->
<svg version="1.1" id="Layer_1" xmlns="http://www.w3.org/2000/svg" xmlns:xlink="http://www.w3.org/1999/xlink" x="0px" y="0px"
	 width="79.6px" height="61px" viewBox="0 0 79.6 61" style="enable-background:new 0 0 79.6 61;" xml:space="preserve">
<style type="text/css">
	.st0{fill:#F26334;}
	.st1{fill:#002C6C;}
	.st2{fill:#FFFFFF;}
</style>
<g>
	<g>
		<path class="st0" d="M61.3,55.3v-4.8h1.9v4.8c0,1.4,0.7,2.1,1.8,2.1s1.8-0.7,1.8-2v-4.8h1.9v4.8c0,2.6-1.4,3.8-3.7,3.8
			S61.3,57.8,61.3,55.3z"/>
		<path class="st0" d="M70.4,50.5h1.9v3.7l3.4-3.7h2.2l-3.4,3.6l3.6,4.9h-2.2l-2.6-3.6l-1,1v2.5h-1.9V50.5L70.4,50.5z"/>
	</g>
	<g>
		<g>
			<g>
				<path class="st1" d="M71.2,38.5v-1.9h-3.6V21.8h-1.7l-4.7,1.9l0.5,2.1l3.7-1.4v12.1h-4.1v1.9L71.2,38.5L71.2,38.5z"/>
			</g>
		</g>
		<g>
			<path class="st1" d="M59.1,30.5C59.1,46.2,46.3,59,30.4,59S1.7,46.3,1.7,30.5C1.8,14.8,14.5,2,30.4,2C46.2,2,59.1,14.8,59.1,30.5
				z"/>
			<g>
				<path class="st2" d="M36.3,21.9c-4.2,0-7.4,3.5-7.4,8.2v0.2c0,4.9,3,8.2,7.3,8.2c2.4,0,4.3-1,5.4-1.8v-7.1h-5.5v1.7h3.6v4.2
					l-0.1,0.1c-0.9,0.6-2,1-3.2,1c-3.2,0-5.2-2.5-5.2-6.4v-0.1c0-3.6,2.1-6.3,5.1-6.3c1.7,0,2.8,0.6,3.7,1.4l1.3-1.6
					C39.6,22.4,38.2,21.9,36.3,21.9z"/>
			</g>
			<g>
				<path class="st2" d="M44.7,36.3c1.6,1.4,3.6,2.1,5.6,2.1c3.1,0,5.1-1.8,5.1-4.5c0-2.2-1.2-3.5-4.3-4.6c-2.9-1.2-3.7-1.8-3.7-3.2
					c0-1.4,1.2-2.3,2.8-2.3c1.2,0,2.4,0.5,3.7,1.4l1.3-1.6c-1.4-1.2-3-1.7-4.8-1.7c-3,0-5,1.8-5,4.3c0,2.6,1.6,3.7,4.6,4.8
					c2.6,1,3.5,1.6,3.5,3s-1.3,2.5-3,2.5c-1.9,0-3.4-1-4.3-1.8L44.7,36.3z"/>
			</g>
			<g>
				<path class="st1" d="M52.3,7L52.3,7c0-1.5,1.3-2.8,2.8-2.8s2.8,1.3,2.8,2.8l0,0c0,1.5-1.3,2.8-2.8,2.8S52.3,8.5,52.3,7z M57.3,7
					L57.3,7c0-1.3-1-2.2-2.2-2.2c-1.3,0-2.2,1-2.2,2.2l0,0c0,1.3,1,2.2,2.2,2.2C56.4,9.2,57.3,8.2,57.3,7z M54,5.6h1.3
					c0.6,0,1.1,0.3,1.1,0.9c0,0.4-0.2,0.7-0.6,0.9l0.7,1h-0.8l-0.6-0.9h-0.4v0.9H54V5.6z M55.3,6.9c0.3,0,0.5-0.2,0.5-0.4
					s-0.2-0.4-0.5-0.4h-0.6v0.8H55.3L55.3,6.9z"/>
			</g>
			<g>
				<g>
					<path class="st2" d="M7.6,30.5c0-13,10-23.7,22.9-24.7V5.7l0,0c-13.8,0-25,11.1-25,24.8s11.2,24.8,24.9,24.8l0,0v-0.1
						C17.6,54.2,7.6,43.5,7.6,30.5z"/>
					<path class="st2" d="M13.2,30.5c0-10.9,8.3-19.9,19-21l-0.1-0.1C20.6,9.6,11.2,19,11.2,30.5s9.3,20.9,20.9,21.1l0.1-0.1
						C21.5,50.3,13.2,41.5,13.2,30.5z"/>
					<path class="st2" d="M18.5,30.5c0-8.9,6.8-16.2,15.5-17.3l-0.1-0.1c-9.5,0.3-17,7.9-17,17.4s7.5,17.1,17,17.4l0.1-0.1
						C25.3,46.8,18.5,39.4,18.5,30.5z"/>
					<path class="st2" d="M23.6,30.5c0-7,5.2-12.8,12.1-13.5v-0.1c-7.4,0.2-13.3,6.2-13.3,13.6s6,13.4,13.3,13.6V44
						C28.9,43.2,23.6,37.5,23.6,30.5z"/>
				</g>
			</g>
		</g>
	</g>
</g>
<g id="Layer_1_1_">
</g>
</svg>
